<svg id="Capa_1" data-name="Capa 1" xmlns="http://www.w3.org/2000/svg" xmlns:xlink="http://www.w3.org/1999/xlink" viewBox="0 0 200 31.7"><defs><style>.cls-1{fill:none;}.cls-2{fill:#444242;}.cls-3{clip-path:url(#clip-path);}.cls-4{fill:url(#linear-gradient);}.cls-5{fill:#d84b3d;}</style><clipPath id="clip-path" transform="translate(0 0)"><polygon class="cls-1" points="96 7.19 102.67 16.47 95.74 26.04 100.36 26.04 107.04 16.21 100.71 7.19 96 7.19"/></clipPath><linearGradient id="linear-gradient" x1="-945.25" y1="3731.73" x2="-944.42" y2="3731.73" gradientTransform="matrix(17.6, 0, 0, -17.6, 16726.78, 65679.61)" gradientUnits="userSpaceOnUse"><stop offset="0" stop-color="#d84b3d"/><stop offset="0.18" stop-color="#ce483d"/><stop offset="0.48" stop-color="#b5403d"/><stop offset="0.87" stop-color="#8b333c"/><stop offset="1" stop-color="#7b2e3c"/></linearGradient></defs><title>planexware-white</title><path class="cls-2" d="M18.71,20.76a9.37,9.37,0,0,1-1.95,3.08,8.11,8.11,0,0,1-2.82,1.91,8.53,8.53,0,0,1-3.26.64,6.85,6.85,0,0,1-3.84-1,9.72,9.72,0,0,1-2.53-2.31l0,8.62H0V7.19H4.34v3.14A9.27,9.27,0,0,1,6.9,7.82a6.71,6.71,0,0,1,3.8-1,8.58,8.58,0,0,1,3.24.64,8.32,8.32,0,0,1,2.79,1.91,9.75,9.75,0,0,1,2,3.08,10.85,10.85,0,0,1,.74,4.17,11,11,0,0,1-.73,4.16m-4-6.67a5.62,5.62,0,0,0-1.16-1.91A5,5,0,0,0,11.81,11a5.11,5.11,0,0,0-2.09-.43,5.23,5.23,0,0,0-2.1.43A4.93,4.93,0,0,0,5.88,12.2a6.15,6.15,0,0,0-1.2,1.9,6.79,6.79,0,0,0-.44,2.5,6.78,6.78,0,0,0,.44,2.49A6.2,6.2,0,0,0,5.88,21a5,5,0,0,0,1.74,1.22,5.23,5.23,0,0,0,2.1.43,5.11,5.11,0,0,0,2.09-.43A4.86,4.86,0,0,0,13.51,21a5.57,5.57,0,0,0,1.16-1.9,6.92,6.92,0,0,0,.43-2.51,6.85,6.85,0,0,0-.43-2.51" transform="translate(0 0)"/><rect class="cls-2" x="24.11" width="4.35" height="26"/><path class="cls-2" d="M45.55,26V23.68a8.15,8.15,0,0,1-2.46,1.93,7.79,7.79,0,0,1-3.63.78A8.68,8.68,0,0,1,36.89,26a6.26,6.26,0,0,1-2.11-1.11,5.29,5.29,0,0,1-1.46-1.81,5.46,5.46,0,0,1-.56-2.51v-.08a5.9,5.9,0,0,1,.57-2.67A5.08,5.08,0,0,1,34.92,16a7.12,7.12,0,0,1,2.42-1.13,11.78,11.78,0,0,1,3-.37,17.2,17.2,0,0,1,2.91.21,20.89,20.89,0,0,1,2.3.57v-.46a3.72,3.72,0,0,0-1.2-3,5.09,5.09,0,0,0-3.44-1,11.16,11.16,0,0,0-2.84.32,18.35,18.35,0,0,0-2.53.85L34.4,8.48a18.89,18.89,0,0,1,3.21-1.14,15.58,15.58,0,0,1,4-.43q4.2,0,6.23,2.08a8,8,0,0,1,2,5.86V26Zm.11-8a11.32,11.32,0,0,0-1.95-.53,12.69,12.69,0,0,0-2.36-.22,5.54,5.54,0,0,0-3.17.79A2.55,2.55,0,0,0,37,20.3v.07a2.36,2.36,0,0,0,1.05,2.07,4.53,4.53,0,0,0,2.58.71,6.32,6.32,0,0,0,2-.29,4.8,4.8,0,0,0,1.58-.8,3.67,3.67,0,0,0,1.05-1.24,3.52,3.52,0,0,0,.38-1.62Z" transform="translate(0 0)"/><path class="cls-2" d="M59.29,26H55V7.19h4.34v3a10.5,10.5,0,0,1,1-1.27,6.69,6.69,0,0,1,2.87-1.8,6.66,6.66,0,0,1,2-.27,6.29,6.29,0,0,1,4.94,2A7.67,7.67,0,0,1,71.83,14V26H67.49V15.34a5,5,0,0,0-1-3.39,3.67,3.67,0,0,0-2.94-1.19,4,4,0,0,0-3,1.22,4.77,4.77,0,0,0-1.17,3.43Z" transform="translate(0 0)"/><path class="cls-2" d="M82.16,21.67a5.33,5.33,0,0,0,3.56,1.23,6.33,6.33,0,0,0,2.78-.57,9.2,9.2,0,0,0,2.31-1.67l2.53,2.24a10.57,10.57,0,0,1-3.22,2.57,9.7,9.7,0,0,1-4.47,1,9.91,9.91,0,0,1-3.79-.72,9,9,0,0,1-5.11-5.07,10.34,10.34,0,0,1-.75-4,10.68,10.68,0,0,1,.67-3.81,9.77,9.77,0,0,1,1.91-3.11,9.24,9.24,0,0,1,2.9-2.12,8.54,8.54,0,0,1,3.71-.79,9,9,0,0,1,3.93.82,8,8,0,0,1,2.81,2.21,9.64,9.64,0,0,1,1.7,3.24A13.15,13.15,0,0,1,94.2,17c0,.19,0,.38,0,.57s0,.39-.06.61H80.31a5.69,5.69,0,0,0,1.85,3.54m7.76-6.39a7.15,7.15,0,0,0-.46-1.94,5.05,5.05,0,0,0-1-1.57,4.69,4.69,0,0,0-1.44-1,4.5,4.5,0,0,0-1.91-.39,4.34,4.34,0,0,0-3.29,1.37,6.17,6.17,0,0,0-1.59,3.58Z" transform="translate(0 0)"/><polygon class="cls-2" points="136.5 20.09 140.35 7.19 144.66 7.19 138.5 26.14 134.65 26.14 130.45 13.29 126.21 26.14 122.36 26.14 116.28 7.19 120.69 7.19 124.47 20.09 128.63 7.12 132.3 7.12 136.5 20.09"/><path class="cls-2" d="M159.33,26V23.68a8.15,8.15,0,0,1-2.46,1.93,7.73,7.73,0,0,1-3.63.78,8.57,8.57,0,0,1-2.56-.37,6.21,6.21,0,0,1-2.12-1.11,5.33,5.33,0,0,1-2-4.32v-.08a5.9,5.9,0,0,1,.57-2.67A5.06,5.06,0,0,1,148.7,16a7.12,7.12,0,0,1,2.42-1.13,11.8,11.8,0,0,1,3-.37,17.07,17.07,0,0,1,2.9.21,20.89,20.89,0,0,1,2.3.57v-.46a3.72,3.72,0,0,0-1.2-3,5.08,5.08,0,0,0-3.43-1,11.18,11.18,0,0,0-2.85.32,18.81,18.81,0,0,0-2.53.85l-1.18-3.45a19.2,19.2,0,0,1,3.21-1.14,15.58,15.58,0,0,1,4-.43q4.2,0,6.23,2.08a8,8,0,0,1,2,5.86V26Zm.11-8a11.44,11.44,0,0,0-1.94-.53,12.89,12.89,0,0,0-2.37-.22,5.56,5.56,0,0,0-3.17.79,2.55,2.55,0,0,0-1.14,2.24v.07a2.36,2.36,0,0,0,1.05,2.07,4.53,4.53,0,0,0,2.58.71,6.32,6.32,0,0,0,2-.29,4.8,4.8,0,0,0,1.58-.8,3.67,3.67,0,0,0,1.05-1.24,3.52,3.52,0,0,0,.38-1.62Z" transform="translate(0 0)"/><path class="cls-2" d="M173.08,26h-4.35V7.19h4.35v4.24A8.25,8.25,0,0,1,175.61,8a6.07,6.07,0,0,1,4.13-1.17V11.4h-.25a7,7,0,0,0-2.6.46,5.38,5.38,0,0,0-2,1.39,6.29,6.29,0,0,0-1.32,2.33,10.43,10.43,0,0,0-.46,3.26Z" transform="translate(0 0)"/><path class="cls-2" d="M188,21.67a5.35,5.35,0,0,0,3.56,1.23,6.3,6.3,0,0,0,2.78-.57,9.24,9.24,0,0,0,2.32-1.67l2.53,2.24a10.61,10.61,0,0,1-3.23,2.57,9.64,9.64,0,0,1-4.47,1,9.91,9.91,0,0,1-3.79-.72,9.1,9.1,0,0,1-3.06-2,9.28,9.28,0,0,1-2-3.08,10.34,10.34,0,0,1-.75-4,10.68,10.68,0,0,1,.68-3.81,9.74,9.74,0,0,1,1.9-3.11,9.17,9.17,0,0,1,2.91-2.12A8.5,8.5,0,0,1,191,6.8a9,9,0,0,1,3.93.82,8.12,8.12,0,0,1,2.82,2.21,9.62,9.62,0,0,1,1.69,3.24A13.15,13.15,0,0,1,200,17c0,.19,0,.38,0,.57s0,.39,0,.61H186.11A5.69,5.69,0,0,0,188,21.67m7.77-6.39a7.55,7.55,0,0,0-.47-1.94,4.87,4.87,0,0,0-1-1.57A4.39,4.39,0,0,0,191,10.33a4.35,4.35,0,0,0-3.29,1.37,6.1,6.1,0,0,0-1.58,3.58Z" transform="translate(0 0)"/><path class="cls-2" d="M108,15.61c-.5-.74-1.33-1.9-2.19-3.14l3.72-5.28h4.59s-4.55,6.27-6.12,8.42" transform="translate(0 0)"/><path class="cls-2" d="M114.39,26h-4.71l-4.05-5.77,2.24-3.29L114.39,26" transform="translate(0 0)"/><g class="cls-3"><rect class="cls-4" x="91.79" y="5.63" width="19.21" height="21.97" transform="translate(5.27 52.92) rotate(-30)"/></g><path class="cls-5" d="M104.84,19.45,96,7.19h4.71l6.34,9-2.21,3.24" transform="translate(0 0)"/></svg>